Coordinates
version=1
nRows=10
nColumns=40
inDegrees=yes

Units are S.I. units (second, meters, Newtons, ...)
Angles are in degrees.

endheader
time	pelvis_tilt	pelvis_list	pelvis_rotation	pelvis_tx	pelvis_ty	pelvis_tz	hip_flexion_r	hip_adduction_r	hip_rotation_r	knee_angle_r	knee_angle_r_beta	ankle_angle_r	subtalar_angle_r	mtp_angle_r	hip_flexion_l	hip_adduction_l	hip_rotation_l	knee_angle_l	knee_angle_l_beta	ankle_angle_l	subtalar_angle_l	mtp_angle_l	lumbar_extension	lumbar_bending	lumbar_rotation	arm_flex_r	arm_add_r	arm_rot_r	elbow_flex_r	pro_sup_r	wrist_flex_r	wrist_dev_r	arm_flex_l	arm_add_l	arm_rot_l	elbow_flex_l	pro_sup_l	wrist_flex_l	wrist_dev_l
     49.40000000	     -3.69012480	     -4.60832993	     -1.05735426	      0.94748699	      0.92077184	      0.58437752	     16.23493923	      4.22090303	     -8.98031935	     25.73983155	     25.73983155	     14.28395980	     -5.55945592	     -2.48102786	     26.14019559	    -11.61470729	      4.99422997	     73.15781356	     73.15781356	      9.05454553	    -17.34065147	      7.61233520	    -10.19389102	      6.47465920	      1.47365565	      6.00275678	    -15.22017882	     -6.59849908	     32.18550636	     45.91019646	      0.00000000	      0.00000000	     16.21059208	     -9.41346727	     -6.01553492	     40.71646361	     45.45312417	      0.00000000	      0.00000000
     49.41907143	     -3.39423338	     -4.57685057	     -0.90401311	      0.94696617	      0.91996782	      0.58663317	     15.89608749	      4.39948190	     -8.59399346	     26.41128651	     26.41128651	     14.88148756	     -6.38380728	     -2.48185661	     27.51719771	    -11.64955849	      5.12172183	     74.77867409	     74.77867409	      9.32758325	    -18.26079700	      8.42256101	    -10.31238584	      6.23823555	      1.06465399	      8.58128087	    -14.81322042	     -6.81860066	     33.81669282	     45.87851063	      0.00000000	      0.00000000	     13.73477540	     -8.95461740	     -5.74204303	     38.50731860	     45.40263029	      0.00000000	      0.00000000
     49.43814286	     -3.07948340	     -4.57088391	     -0.72645855	      0.94636487	      0.91909715	      0.58885789	     15.52270852	      4.63234042	     -8.16367917	     27.05702910	     27.05702910	     15.46582557	     -7.35182423	     -2.33533387	     28.88732626	    -11.74199703	      5.27451691	     76.17238564	     76.17238564	     10.04064604	    -18.77424974	     10.23969396	    -10.47156590	      6.04019813	      0.66740487	     11.17662852	    -14.36187083	     -6.99417880	     35.73801851	     45.83133431	      0.00000000	      0.00000000	     11.48610858	     -8.48895277	     -5.33731029	     35.67521059	     45.34374427	      0.00000000	      0.00000000
     49.45721429	     -2.74147811	     -4.62657360	     -0.53744012	      0.94567553	      0.91810689	      0.59097974	     15.14153051	      4.90307845	     -7.85262410	     27.74026151	     27.74026151	     16.07510564	     -8.18852158	     -2.26649433	     30.16662595	    -11.98146814	      5.38069993	     77.10416333	     77.10416333	     10.82472579	    -19.08841798	     11.99653742	    -10.69383796	      5.91824034	      0.54439816	     13.73018220	    -14.05074769	     -7.11075153	     37.64271269	     45.78054040	      0.00000000	      0.00000000	      9.41570360	     -7.92358116	     -4.92006669	     33.12224068	     45.27834646	      0.00000000	      0.00000000
     49.47628571	     -2.47305039	     -4.60041246	     -0.33291134	      0.94483414	      0.91720277	      0.59275100	     14.80600677	      5.09508934	     -7.47029853	     28.35233660	     28.35233660	     16.81196146	     -8.99237776	     -1.47370598	     31.49769821	    -11.94558543	      5.63035189	     77.60245136	     77.60245136	     12.97261476	    -19.21057731	     18.02057930	    -10.83974424	      5.72546839	      1.09546701	     15.46299971	    -14.24732377	     -7.00947108	     40.78913642	     45.66677816	      0.00000000	      0.00000000	      8.65773758	     -7.06360742	     -3.80826344	     28.20315497	     45.19700526	      0.00000000	      0.00000000
     49.49535714	     -2.26864719	     -4.60813155	     -0.07924819	      0.94380486	      0.91619106	      0.59428865	     14.54119387	      5.26265346	     -7.28034158	     28.92833720	     28.92833720	     17.45234467	     -9.58651170	     -1.02170244	     32.63437666	    -12.13596986	      5.71023825	     77.15604186	     77.15604186	     13.74231187	    -19.36116194	     19.75316952	    -10.99532097	      5.56848462	      1.15961427	     17.56795942	    -14.16409894	     -6.92763696	     44.04539646	     45.55750623	      0.00000000	      0.00000000	      6.93948634	     -6.63393625	     -2.93235653	     25.68498905	     45.11244436	      0.00000000	      0.00000000
     49.51442857	     -2.12630103	     -4.61852966	      0.20816962	      0.94262291	      0.91527999	      0.59548866	     14.29127906	      5.41706018	     -7.14101777	     29.36789149	     29.36789149	     17.95527313	    -10.18541537	     -0.70826806	     33.63076931	    -12.34788392	      5.72377521	     75.88508317	     75.88508317	     14.33843972	    -19.45673980	     20.97205355	    -11.11329827	      5.44415476	      1.15053407	     19.87675678	    -14.14957624	     -6.64344036	     47.11172364	     45.45242198	      0.00000000	      0.00000000	      5.11406003	     -6.32085972	     -1.94208169	     23.93122915	     44.98381348	      0.00000000	      0.00000000
     49.53350000	     -2.02588959	     -4.60716983	      0.54088759	      0.94127855	      0.91457750	      0.59627283	     14.01792643	      5.49325703	     -7.14029724	     29.64741853	     29.64741853	     18.30860550	    -10.65145713	     -0.71165497	     34.42227875	    -12.54511492	      5.62290646	     73.75242810	     73.75242810	     14.63791524	    -19.52050747	     21.34658241	    -11.20324348	      5.32082950	      0.92230479	     22.70399371	    -13.90604776	     -6.70009197	     49.28285152	     45.39302779	      0.00000000	      0.00000000	      3.19060422	     -6.08009858	     -1.63669198	     22.78948703	     44.90855922	      0.00000000	      0.00000000
     49.55257143	     -2.06294660	     -4.59283260	      0.92813538	      0.93972336	      0.91405809	      0.59661679	     13.79788122	      5.53078080	     -7.23147855	     29.70490645	     29.70490645	     18.56487583	    -11.01973403	     -0.60677119	     35.13047003	    -12.65690239	      5.48619192	     70.83520245	     70.83520245	     14.94573497	    -19.54757786	     21.81731072	    -11.18860545	      5.22531458	      0.71783133	     25.35004624	    -13.79372425	     -6.54407971	     51.98793809	     45.30555652	      0.00000000	      0.00000000	      1.37795577	     -5.91537416	     -1.20850536	     21.92078806	     44.80679842	      0.00000000	      0.00000000
     49.57164286	     -2.11496536	     -4.49350971	      1.30035826	      0.93800745	      0.91397025	      0.59656059	     13.51925011	      5.43386226	     -7.36872085	     29.61910496	     29.61910496	     18.79266358	    -11.19445263	     -0.54482119	     35.51906595	    -12.62817208	      5.18416542	     67.11928156	     67.11928156	     15.05114559	    -19.54866671	     22.08416256	    -11.20844195	      5.07620841	      0.71377563	     28.03513090	    -13.87706734	     -6.40315899	     54.56788542	     45.22422455	      0.00000000	      0.00000000	     -0.23437826	     -5.78574144	     -0.85604106	     21.36234117	     44.71213961	      0.00000000	      0.00000000
